<mxfile host="app.diagrams.net" modified="2022-10-30T03:09:06.674Z" agent="5.0 (Windows NT 10.0; Win64; x64) AppleWebKit/537.36 (KHTML, like Gecko) Chrome/106.0.0.0 Safari/537.36" etag="A5NOKlQOiAwuRFstuKkg" version="20.5.1" type="github">
  <diagram id="yK6GuqPIL3rJYugQjE4B" name="第 1 页">
    <mxGraphModel dx="782" dy="468" grid="1" gridSize="10" guides="1" tooltips="1" connect="1" arrows="1" fold="1" page="1" pageScale="1" pageWidth="827" pageHeight="1169" math="0" shadow="0">
      <root>
        <mxCell id="0" />
        <mxCell id="1" parent="0" />
        <mxCell id="2OhQPmGg1m7oNa4MYXg3-1" value="" style="rounded=1;whiteSpace=wrap;html=1;" vertex="1" parent="1">
          <mxGeometry x="160" y="120" width="140" height="160" as="geometry" />
        </mxCell>
        <mxCell id="2OhQPmGg1m7oNa4MYXg3-2" value="MAINAP (CAP)" style="text;html=1;resizable=0;autosize=1;align=center;verticalAlign=middle;points=[];fillColor=none;strokeColor=none;rounded=0;" vertex="1" parent="1">
          <mxGeometry x="175" y="90" width="110" height="30" as="geometry" />
        </mxCell>
        <mxCell id="2OhQPmGg1m7oNa4MYXg3-15" style="edgeStyle=orthogonalEdgeStyle;rounded=0;orthogonalLoop=1;jettySize=auto;html=1;exitX=0;exitY=0.75;exitDx=0;exitDy=0;entryX=1;entryY=0.5;entryDx=0;entryDy=0;" edge="1" parent="1" source="2OhQPmGg1m7oNa4MYXg3-3" target="2OhQPmGg1m7oNa4MYXg3-5">
          <mxGeometry relative="1" as="geometry" />
        </mxCell>
        <mxCell id="2OhQPmGg1m7oNa4MYXg3-3" value="" style="rounded=1;whiteSpace=wrap;html=1;" vertex="1" parent="1">
          <mxGeometry x="400" y="120" width="140" height="160" as="geometry" />
        </mxCell>
        <mxCell id="2OhQPmGg1m7oNa4MYXg3-4" value="satellite (RE)" style="text;html=1;resizable=0;autosize=1;align=center;verticalAlign=middle;points=[];fillColor=none;strokeColor=none;rounded=0;" vertex="1" parent="1">
          <mxGeometry x="425" y="90" width="90" height="30" as="geometry" />
        </mxCell>
        <mxCell id="2OhQPmGg1m7oNa4MYXg3-5" value="5G AP&lt;br&gt;(SSID = myap)" style="rounded=0;whiteSpace=wrap;html=1;" vertex="1" parent="1">
          <mxGeometry x="170" y="140" width="120" height="40" as="geometry" />
        </mxCell>
        <mxCell id="2OhQPmGg1m7oNa4MYXg3-6" value="5G AP&lt;br&gt;(SSID = myap)" style="rounded=0;whiteSpace=wrap;html=1;" vertex="1" parent="1">
          <mxGeometry x="410" y="140" width="120" height="40" as="geometry" />
        </mxCell>
        <mxCell id="2OhQPmGg1m7oNa4MYXg3-8" value="5G STA&lt;br&gt;(SSID = myap)" style="rounded=0;whiteSpace=wrap;html=1;" vertex="1" parent="1">
          <mxGeometry x="410" y="220" width="120" height="40" as="geometry" />
        </mxCell>
        <mxCell id="2OhQPmGg1m7oNa4MYXg3-12" value="" style="shape=singleArrow;direction=south;whiteSpace=wrap;html=1;" vertex="1" parent="1">
          <mxGeometry x="200" y="280" width="60" height="100" as="geometry" />
        </mxCell>
        <mxCell id="2OhQPmGg1m7oNa4MYXg3-13" value="bridged" style="shape=doubleArrow;direction=south;whiteSpace=wrap;html=1;fontColor=#3399FF;" vertex="1" parent="1">
          <mxGeometry x="440" y="180" width="60" height="40" as="geometry" />
        </mxCell>
        <mxCell id="2OhQPmGg1m7oNa4MYXg3-14" value="" style="shape=mxgraph.arrows2.wedgeArrowDashed2;html=1;bendable=0;startWidth=50;stepSize=15;rounded=0;" edge="1" parent="1">
          <mxGeometry width="100" height="100" relative="1" as="geometry">
            <mxPoint x="610" y="159.5" as="sourcePoint" />
            <mxPoint x="550" y="159.5" as="targetPoint" />
          </mxGeometry>
        </mxCell>
        <mxCell id="2OhQPmGg1m7oNa4MYXg3-16" value="" style="shape=mxgraph.arrows2.wedgeArrowDashed2;html=1;bendable=0;startWidth=50;stepSize=15;rounded=0;" edge="1" parent="1">
          <mxGeometry width="100" height="100" relative="1" as="geometry">
            <mxPoint x="100" y="160" as="sourcePoint" />
            <mxPoint x="150" y="159.5" as="targetPoint" />
          </mxGeometry>
        </mxCell>
        <mxCell id="2OhQPmGg1m7oNa4MYXg3-17" value="Wi-Fi clients" style="text;html=1;resizable=0;autosize=1;align=center;verticalAlign=middle;points=[];fillColor=none;strokeColor=none;rounded=0;fontColor=#000000;" vertex="1" parent="1">
          <mxGeometry x="620" y="145" width="90" height="30" as="geometry" />
        </mxCell>
        <mxCell id="2OhQPmGg1m7oNa4MYXg3-18" value="Wi-Fi clients" style="text;html=1;resizable=0;autosize=1;align=center;verticalAlign=middle;points=[];fillColor=none;strokeColor=none;rounded=0;fontColor=#000000;" vertex="1" parent="1">
          <mxGeometry x="10" y="145" width="90" height="30" as="geometry" />
        </mxCell>
        <mxCell id="2OhQPmGg1m7oNa4MYXg3-19" value="The Internet" style="text;html=1;resizable=0;autosize=1;align=center;verticalAlign=middle;points=[];fillColor=none;strokeColor=none;rounded=0;fontColor=#000000;" vertex="1" parent="1">
          <mxGeometry x="185" y="390" width="90" height="30" as="geometry" />
        </mxCell>
      </root>
    </mxGraphModel>
  </diagram>
</mxfile>
